<?xml version="1.0" standalone="no"?>
<!DOCTYPE svg PUBLIC "-//W3C//DTD SVG 20010904//EN"
 "http://www.w3.org/TR/2001/REC-SVG-20010904/DTD/svg10.dtd">
<svg version="1.0" xmlns="http://www.w3.org/2000/svg"
 width="323.000000pt" height="323.000000pt" viewBox="0 0 323.000000 323.000000"
 preserveAspectRatio="xMidYMid meet">
<metadata>
Created by potrace 1.14, written by Peter Selinger 2001-2017
</metadata>
<g transform="translate(0.000000,323.000000) scale(0.100000,-0.100000)"
fill="#000000" stroke="none">
<path d="M910 2637 c-3 -3 -30 -8 -60 -12 -30 -4 -91 -18 -135 -32 -346 -109
-608 -395 -691 -753 -26 -110 -25 -346 2 -450 102 -405 407 -695 814 -774 115
-23 310 -15 431 17 103 27 246 90 312 138 38 28 40 28 56 9 44 -51 256 -140
394 -165 103 -18 306 -14 400 9 357 87 633 340 746 686 30 92 43 173 46 292
10 436 -258 827 -671 977 -79 29 -95 33 -209 51 -81 14 -226 10 -316 -6 -134
-25 -235 -65 -361 -140 l-56 -34 -37 24 c-142 97 -332 155 -530 163 -71 3
-132 3 -135 0z m295 -368 c39 -12 92 -32 118 -46 l49 -24 -18 -27 c-97 -148
-151 -318 -161 -509 l-5 -103 171 0 c156 0 171 2 172 18 1 9 2 42 4 72 8 155
75 317 177 426 166 177 383 250 620 209 253 -44 470 -249 534 -505 18 -69 23
-195 11 -271 -13 -85 -70 -222 -117 -283 -208 -270 -537 -355 -842 -217 -26
12 -49 25 -52 29 -2 4 9 30 26 57 65 104 120 271 142 428 l5 37 -42 1 c-96 1
-300 -1 -303 -3 -1 -2 -4 -21 -7 -43 -36 -259 -252 -492 -514 -554 -73 -17
-222 -21 -278 -8 -193 46 -319 127 -424 272 -86 118 -124 237 -125 395 0 99 4
127 28 201 81 253 283 425 556 472 57 10 208 -3 275 -24z"/>
</g>
</svg>
